<svg xmlns="http://www.w3.org/2000/svg" viewBox="0 0 1120 690" font-family="Helvetica, Arial, sans-serif">
<defs><marker id="ah" markerWidth="10" markerHeight="10" refX="8" refY="3" orient="auto" markerUnits="strokeWidth"><path d="M0,0 L8,3 L0,6 z" fill="#1e1e1e"/></marker><marker id="ahg" markerWidth="10" markerHeight="10" refX="8" refY="3" orient="auto" markerUnits="strokeWidth"><path d="M0,0 L8,3 L0,6 z" fill="#868e96"/></marker></defs>
<rect x="0" y="0" width="1120" height="690" fill="#ffffff"/>
<text x="20" y="34" font-size="20" text-anchor="start" fill="#1e1e1e" font-weight="bold">Evenly  ·  system architecture</text>
<rect x="40" y="70" width="300" height="540" rx="10" fill="#f1f3f5" stroke="#868e96" stroke-width="2"/>
<text x="54" y="98" font-size="17" text-anchor="start" fill="#868e96" font-weight="bold">Browser  (anon key)</text>
<rect x="60" y="120" width="260" height="46" rx="10" fill="#ffffff" stroke="#495057" stroke-width="2"/>
<text x="190.0" y="148.5" font-size="15" text-anchor="middle" fill="#1e1e1e">Auth pages: login / signup</text>
<rect x="60" y="178" width="260" height="46" rx="10" fill="#ffffff" stroke="#495057" stroke-width="2"/>
<text x="190.0" y="206.5" font-size="15" text-anchor="middle" fill="#1e1e1e">Dashboard: GroupList</text>
<rect x="60" y="236" width="260" height="58" rx="10" fill="#ffffff" stroke="#495057" stroke-width="2"/>
<text x="190.0" y="261.0" font-size="15" text-anchor="middle" fill="#1e1e1e">Group page:</text><text x="190.0" y="280.0" font-size="15" text-anchor="middle" fill="#1e1e1e">BalanceList, RealtimeRefresher</text>
<rect x="60" y="306" width="260" height="58" rx="10" fill="#ffffff" stroke="#495057" stroke-width="2"/>
<text x="190.0" y="331.0" font-size="15" text-anchor="middle" fill="#1e1e1e">Add expense:</text><text x="190.0" y="350.0" font-size="15" text-anchor="middle" fill="#1e1e1e">ExpenseForm, ReceiptUpload</text>
<rect x="60" y="376" width="260" height="58" rx="10" fill="#fff3bf" stroke="#f08c00" stroke-width="2"/>
<text x="190.0" y="401.0" font-size="15" text-anchor="middle" fill="#1e1e1e">Tesseract.js OCR</text><text x="190.0" y="420.0" font-size="15" text-anchor="middle" fill="#1e1e1e">(runs in the browser)</text>
<text x="62" y="458" font-size="12" text-anchor="start" fill="#868e96">receipt image never leaves</text><text x="62" y="474" font-size="12" text-anchor="start" fill="#868e96">the device (no server OCR)</text>
<rect x="420" y="70" width="280" height="340" rx="10" fill="#e7f5ff" stroke="#4dabf7" stroke-width="2"/>
<text x="434" y="98" font-size="17" text-anchor="start" fill="#4dabf7" font-weight="bold">Next.js  (App Router, Vercel)</text>
<rect x="440" y="120" width="240" height="58" rx="10" fill="#ffffff" stroke="#495057" stroke-width="2"/>
<text x="560.0" y="145.0" font-size="15" text-anchor="middle" fill="#1e1e1e">middleware.ts</text><text x="560.0" y="164.0" font-size="15" text-anchor="middle" fill="#1e1e1e">(keep session cookie fresh)</text>
<rect x="440" y="190" width="240" height="72" rx="10" fill="#ffffff" stroke="#495057" stroke-width="2"/>
<text x="560.0" y="212.5" font-size="15" text-anchor="middle" fill="#1e1e1e">Server Components</text><text x="560.0" y="231.5" font-size="15" text-anchor="middle" fill="#1e1e1e">(RLS-filtered reads,</text><text x="560.0" y="250.5" font-size="15" text-anchor="middle" fill="#1e1e1e">compute balances)</text>
<rect x="440" y="274" width="240" height="58" rx="10" fill="#ffffff" stroke="#495057" stroke-width="2"/>
<text x="560.0" y="299.0" font-size="15" text-anchor="middle" fill="#1e1e1e">Client Components</text><text x="560.0" y="318.0" font-size="15" text-anchor="middle" fill="#1e1e1e">(shipped to the browser)</text>
<rect x="780" y="70" width="300" height="540" rx="10" fill="#ebfbee" stroke="#40c057" stroke-width="2"/>
<text x="794" y="98" font-size="17" text-anchor="start" fill="#40c057" font-weight="bold">Supabase  (free tier)</text>
<rect x="800" y="120" width="260" height="52" rx="10" fill="#ffffff" stroke="#495057" stroke-width="2"/>
<text x="930.0" y="151.5" font-size="15" text-anchor="middle" fill="#1e1e1e">Auth  (email/password, JWT)</text>
<rect x="800" y="184" width="260" height="52" rx="10" fill="#ffffff" stroke="#495057" stroke-width="2"/>
<text x="930.0" y="215.5" font-size="15" text-anchor="middle" fill="#1e1e1e">Postgres + Row Level Security</text>
<rect x="800" y="248" width="260" height="52" rx="10" fill="#ffffff" stroke="#495057" stroke-width="2"/>
<text x="930.0" y="279.5" font-size="15" text-anchor="middle" fill="#1e1e1e">Storage  (receipts bucket)</text>
<rect x="800" y="312" width="260" height="52" rx="10" fill="#ffffff" stroke="#495057" stroke-width="2"/>
<text x="930.0" y="343.5" font-size="15" text-anchor="middle" fill="#1e1e1e">Realtime  (postgres_changes)</text>
<text x="802" y="392" font-size="12" text-anchor="start" fill="#868e96">tables: profiles, groups,</text><text x="802" y="408" font-size="12" text-anchor="start" fill="#868e96">group_members, expenses,</text><text x="802" y="424" font-size="12" text-anchor="start" fill="#868e96">expense_splits, settlements</text>
<polyline points="340,150 420,150" fill="none" stroke="#1e1e1e" stroke-width="2" marker-end="url(#ah)"/>
<text x="345" y="111" font-size="12" text-anchor="start" fill="#364fc7">navigate /</text><text x="345" y="127" font-size="12" text-anchor="start" fill="#364fc7">SSR HTML</text>
<polyline points="700,226 780,226" fill="none" stroke="#1e1e1e" stroke-width="2" marker-end="url(#ah)"/>
<text x="700" y="187" font-size="12" text-anchor="start" fill="#364fc7">server client</text><text x="700" y="203" font-size="12" text-anchor="start" fill="#364fc7">(SSR reads, RLS)</text>
<polyline points="190,610 190,650 930,650 930,610" fill="none" stroke="#1e1e1e" stroke-width="2" marker-end="url(#ah)"/>
<text x="360" y="667" font-size="12" text-anchor="start" fill="#364fc7">anon client: auth, CRUD, realtime WebSocket, storage upload</text>
</svg>
